<?xml version="1.0" encoding="UTF-8"?>
<svg version="1.1" xmlns="http://www.w3.org/2000/svg" width="1024" height="768">
<path d="M0 0 C337.92 0 675.84 0 1024 0 C1024 253.44 1024 506.88 1024 768 C686.08 768 348.16 768 0 768 C0 514.56 0 261.12 0 0 Z " fill="#FCFCFC" transform="translate(0,0)"/>
<path d="M0 0 C0.65178223 0.16097168 1.30356445 0.32194336 1.97509766 0.48779297 C28.04179083 7.17304244 51.8072394 24.22532606 65.953125 47.22558594 C72.06816148 57.59034459 76.83073943 68.37937791 80 80 C80.18256348 80.66467285 80.36512695 81.3293457 80.55322266 82.01416016 C82.63415318 90.74203767 82.45702009 99.7028172 82.625 108.625 C82.66325702 110.31382052 82.702313 112.00262314 82.7421875 113.69140625 C82.83733889 117.79412246 82.92167039 121.89692957 83 126 C89.59165487 128.33405539 96.22806182 130.12429531 103.02734375 131.7421875 C105.14009293 132.2560215 107.25271947 132.77035995 109.36523438 133.28515625 C112.65296715 134.08237564 115.94143448 134.87593821 119.23217773 135.66064453 C122.4374812 136.42692699 125.63877178 137.20844251 128.83984375 137.9921875 C129.80993881 138.21945526 130.78003387 138.44672302 131.77952576 138.68087769 C142.55441796 141.34440489 152.29006686 145.3635522 158.25 155.0625 C163.14388264 163.45021123 163.45081261 173.15120836 161.12890625 182.51171875 C158.72276177 188.79925038 155.91504292 193.53497076 150 197 C146.55580925 197.93908685 143.18225007 198.06529315 139.625 198.1875 C137.42963183 198.31414274 135.23432376 198.44182991 133.0390625 198.5703125 C131.79801758 198.63379883 130.55697266 198.69728516 129.27832031 198.76269531 C121.45139751 199.17856025 113.63567633 199.78556469 105.81903076 200.35855103 C103.0133961 200.56153083 100.20725707 200.75559969 97.40087891 200.94799805 C95.66307459 201.07064011 93.92528111 201.19343582 92.1875 201.31640625 C91.37509857 201.37049652 90.56269714 201.42458679 89.72567749 201.48031616 C86.05566846 201.42729382 86.05566846 201.42729382 83 203 C82.85356733 204.37806634 82.77249948 205.76316752 82.71875 207.14794922 C82.6635746 208.48169838 82.6635746 208.48169838 82.60728455 209.84239197 C82.5541787 211.30872826 82.5541787 211.30872826 82.5 212.8046875 C82.4598024 213.81950699 82.4196048 214.83432648 82.37818909 215.87989807 C82.29236787 218.07022554 82.20888914 220.26064576 82.12747192 222.45114136 C82.00013511 225.87137094 81.86576299 229.29126817 81.73022461 232.71118164 C81.32390765 243.14081704 80.95954419 253.56824509 80.75390625 264.00390625 C80.73645355 264.82379028 80.71900085 265.64367432 80.70101929 266.48840332 C80.62119179 270.26757852 80.55562758 274.04585459 80.51757812 277.82568359 C80.49244141 279.14004395 80.46730469 280.4544043 80.44140625 281.80859375 C80.42122437 283.50713501 80.42122437 283.50713501 80.40063477 285.23999023 C80 288 80 288 78.66381836 289.86352539 C76.07354763 291.63281523 74.03903328 291.38796169 71 291 C68.53399351 287.30099027 68.62183846 284.34835114 68.51342773 280.05615234 C68.48548126 279.2477742 68.45753479 278.43939606 68.42874146 277.60652161 C68.3383494 274.93320087 68.26112637 272.25965938 68.18359375 269.5859375 C68.12254822 267.73170842 68.0605288 265.87751118 67.99757385 264.02334595 C67.8338071 259.14134664 67.68054196 254.25907936 67.53027344 249.37664795 C67.2884891 241.55381111 67.03419256 233.73139712 66.77354622 225.90916824 C66.68429318 223.16990365 66.60154269 220.43049522 66.51939392 217.69100952 C66.46554322 216.02235205 66.41148277 214.35370134 66.35717773 212.68505859 C66.33586288 211.91725571 66.31454803 211.14945282 66.29258728 210.35838318 C66.47664814 206.88529162 66.47664814 206.88529162 65 204 C63.3667755 203.98315678 61.7327403 204.03763748 60.1015625 204.12109375 C59.07361572 204.17023926 58.04566895 204.21938477 56.98657227 204.27001953 C55.87725342 204.32528809 54.76793457 204.38055664 53.625 204.4375 C51.33469215 204.52877861 49.04432612 204.61860806 46.75390625 204.70703125 C42.65064858 204.87204161 38.56072316 205.0933479 34.46484375 205.38671875 C21.16893762 206.16434035 21.16893762 206.16434035 15.875 201.5 C14.71928403 200.21587114 13.56647667 198.92849112 12.44970703 197.61035156 C9.31480086 194.12806105 5.7528243 191.05023208 2.3125 187.875 C-2.36940918 183.49013676 -6.9877816 179.05958794 -11.48022461 174.48022461 C-13.52401081 172.4896261 -15.76764696 170.77275094 -18 169 C-19.64628913 165.70742173 -19.53827018 163.6482757 -19 160 C-14.23323431 154.59085963 -7.78006939 150.64170047 -1.8125 146.6875 C3.79408793 142.91497918 9.30074243 139.10022345 14.625 134.9375 C19.65029245 131.03179895 24.6886209 127.15092869 29.8125 123.375 C30.50617676 122.84124756 31.19985352 122.30749512 31.91455078 121.75756836 C36.88230611 118.14784033 39.86905225 117.32429393 46 118 C49.125 118.62109375 49.125 118.62109375 52 119.4375 C56.68178569 120.75425223 61.17671305 121.46465673 66 122 C65.95516524 117.55594803 65.88465252 113.11318487 65.79248047 108.66992188 C65.76462615 107.1651481 65.74323916 105.66023767 65.72900391 104.15527344 C65.62487331 93.75609795 64.46559701 84.89445944 61 75 C60.74895508 74.27184082 60.49791016 73.54368164 60.23925781 72.79345703 C52.18611856 50.85251856 35.47195023 32.59112135 14.4375 22.5625 C-3.66636158 14.3848864 -21.20147923 13.81289485 -40 20 C-43.26275051 21.26427105 -46.46342868 22.59014941 -49.64453125 24.046875 C-52 25 -52 25 -55 25 C-55 25.66 -55 26.32 -55 27 C-53.94619141 27.32484375 -53.94619141 27.32484375 -52.87109375 27.65625 C-42.62945412 32.44961603 -34.75234259 44.15377256 -30.67875099 54.28649902 C-26.7837862 65.53703153 -26.28564038 75.82369719 -26.35302734 87.65625 C-26.34623567 89.68189271 -26.33732393 91.70752924 -26.32647705 93.7331543 C-26.30386142 99.18780937 -26.31244624 104.64198673 -26.32837248 110.09664917 C-26.34112405 115.83332508 -26.32926585 121.56996293 -26.32144165 127.30664062 C-26.31237189 136.93627181 -26.32426265 146.5657106 -26.34814453 156.1953125 C-26.37535048 167.29266023 -26.36653443 178.38954847 -26.3390125 189.48688507 C-26.31624607 199.05344801 -26.31315808 208.61987347 -26.32620585 218.18645477 C-26.33395904 223.88325012 -26.33515657 229.57983023 -26.31852341 235.27661133 C-26.30396781 240.6351142 -26.31430116 245.99303072 -26.34299469 251.35147095 C-26.34954667 253.30562369 -26.34781024 255.2598267 -26.33668137 257.21395874 C-26.23303806 277.27886096 -30.48415964 293.67648975 -44.59375 308.6796875 C-56.51096303 320.17128578 -70.37951514 324.17726103 -86.5 324.3125 C-87.62148438 324.34150391 -88.74296875 324.37050781 -89.8984375 324.40039062 C-100.16933379 324.47748165 -109.03656833 321.97968426 -118 317 C-118.04487549 317.70608398 -118.08975098 318.41216797 -118.13598633 319.13964844 C-118.34753296 322.34419786 -118.57978205 325.5469214 -118.8125 328.75 C-118.88275391 329.86117188 -118.95300781 330.97234375 -119.02539062 332.1171875 C-119.10595703 333.18710937 -119.18652344 334.25703125 -119.26953125 335.359375 C-119.33760986 336.34389648 -119.40568848 337.32841797 -119.47583008 338.34277344 C-120.0653812 341.33144342 -120.90175971 342.81302103 -123 345 C-125.5 345.5 -125.5 345.5 -128 345 C-130.66441133 342.50657755 -130.99456132 341.06120994 -131.32128906 337.3840332 C-131.31543972 335.93950856 -131.29606955 334.49499688 -131.265625 333.05078125 C-131.26839824 331.46419032 -131.27234225 329.87760109 -131.27734375 328.29101562 C-131.26902647 325.80683951 -131.25018775 323.32395358 -131.20947266 320.84008789 C-130.84583264 308.1803275 -130.84583264 308.1803275 -137.29394531 297.68188477 C-137.85694336 297.12686279 -138.41994141 296.57184082 -139 296 C-147.26189722 282.19799881 -147.44322347 266.82431104 -147.38818359 251.2734375 C-147.39225729 249.32366646 -147.39760361 247.37389773 -147.40411377 245.4241333 C-147.41769831 240.16793317 -147.41252559 234.91191125 -147.40297651 229.65570831 C-147.3953337 224.13163301 -147.40243828 218.60757205 -147.40713501 213.08349609 C-147.41257917 203.81019375 -147.4054362 194.53696329 -147.39111328 185.26367188 C-147.3747894 174.57200293 -147.38007885 163.88050566 -147.3965925 153.18884087 C-147.41024563 143.97736081 -147.41210836 134.76593218 -147.40427649 125.55444527 C-147.39962097 120.06676549 -147.39891636 114.57916617 -147.40888596 109.0914917 C-147.41760925 103.93014313 -147.41143657 98.76901399 -147.39420319 93.6076889 C-147.39026682 91.72364413 -147.39132293 89.8395806 -147.39799118 87.95554352 C-147.46172386 68.10483679 -144.89213786 50.20152439 -130.45703125 35.25 C-119.8400743 25.52763561 -107.67010712 18.28557534 -93 17.75 C-87.66165139 17.33097735 -84.37816369 14.94740255 -80.03515625 11.97265625 C-56.69690201 -3.19570719 -26.69657016 -6.68576129 0 0 Z " fill="#040403" transform="translate(504,213)"/>
<path d="M0 0 C11.80336687 5.02270931 20.6540755 16.70017059 25.32735252 28.29260254 C29.21706273 39.54040861 29.71433649 49.82775734 29.64697266 61.65625 C29.65376433 63.68189271 29.66267607 65.70752924 29.67352295 67.7331543 C29.69613858 73.18780937 29.68755376 78.64198673 29.67162752 84.09664917 C29.65887595 89.83332508 29.67073415 95.56996293 29.67855835 101.30664062 C29.68762811 110.93627181 29.67573735 120.5657106 29.65185547 130.1953125 C29.62464952 141.29266023 29.63346557 152.38954847 29.6609875 163.48688507 C29.68375393 173.05344801 29.68684192 182.61987347 29.67379415 192.18645477 C29.66604096 197.88325012 29.66484343 203.57983023 29.68147659 209.27661133 C29.69603219 214.6351142 29.68569884 219.99303072 29.65700531 225.35147095 C29.65045333 227.30562369 29.65218976 229.2598267 29.66331863 231.21395874 C29.76696194 251.27886096 25.51584036 267.67648975 11.40625 282.6796875 C-0.51096303 294.17128578 -14.37951514 298.17726103 -30.5 298.3125 C-31.62148438 298.34150391 -32.74296875 298.37050781 -33.8984375 298.40039062 C-44.9791612 298.48356003 -53.56248384 295.57372215 -63 290 C-62.28257185 270.21779224 -61.29880911 250.45252596 -60.25660324 230.68530273 C-60.12300748 228.14968237 -59.9900766 225.61402772 -59.85720825 223.07836914 C-58.81447928 203.21783036 -57.70198526 183.36948013 -56.25793457 163.53341675 C-54.76697189 142.96347485 -53.81076428 122.36580427 -52.82286072 101.76690674 C-51.92846767 83.17235708 -51.92846767 83.17235708 -51.4921875 75.65625 C-51.39333252 73.92858398 -51.39333252 73.92858398 -51.29248047 72.16601562 C-49.14179721 48.88549765 -35.65413558 26.93115849 -18 12 C-12.34822955 7.69518496 -6.36230485 3.18115243 0 0 Z " fill="#029B65" transform="translate(448,239)"/>
<path d="M0 0 C18.5427672 14.29897002 30.63995328 32.68947748 36.63745117 55.32519531 C36.81542236 55.88480957 36.99339355 56.44442383 37.17675781 57.02099609 C37.8361379 60.31894481 37.75975102 63.58659989 37.73510742 66.93457031 C37.73369247 67.66138 37.73227753 68.3881897 37.7308197 69.13702393 C37.72523909 71.44979025 37.71269021 73.76245843 37.69995117 76.07519531 C37.69493366 77.64680849 37.69037119 79.2184232 37.6862793 80.79003906 C37.67527602 84.63512874 37.65802478 88.48014541 37.63745117 92.32519531 C36.3819043 92.33873047 35.12635742 92.35226562 33.83276367 92.36621094 C32.773396 92.37763123 32.773396 92.37763123 31.69262695 92.38928223 C27.88618673 92.27058532 24.39067514 91.04625017 20.76245117 89.98144531 C16.0685233 88.99572046 11.99079839 88.15078128 7.60327148 90.34033203 C5.40663372 91.80876503 3.33648006 93.37569394 1.26245117 95.01269531 C-0.32831603 96.21501936 -1.91947283 97.41682807 -3.51098633 98.61816406 C-4.31632813 99.2361084 -5.12166992 99.85405273 -5.95141602 100.49072266 C-9.70144344 103.34387232 -13.53265279 106.08078682 -17.36254883 108.82519531 C-18.84211919 109.89364692 -20.32128355 110.96266098 -21.80004883 112.03222656 C-25.00478987 114.34714948 -28.21382408 116.65599445 -31.42504883 118.96191406 C-32.25133789 119.55617188 -33.07762695 120.15042969 -33.92895508 120.76269531 C-35.51902675 121.90611764 -37.1101295 123.04810785 -38.70239258 124.18847656 C-39.41524414 124.70152344 -40.1280957 125.21457031 -40.86254883 125.74316406 C-41.49161133 126.19457764 -42.12067383 126.64599121 -42.76879883 127.11108398 C-44.50142124 128.37474338 -44.50142124 128.37474338 -46.36254883 130.32519531 C-46.94669585 133.69826149 -46.94669585 133.69826149 -46.36254883 137.32519531 C-44.74616851 139.09949784 -43.11472274 140.69449394 -41.36254883 142.32519531 C-40.12218866 143.56793458 -38.88687567 144.81572332 -37.65551758 146.06738281 C-36.28708063 147.44503926 -34.91858986 148.82264225 -33.55004883 150.20019531 C-32.87651367 150.88210938 -32.20297852 151.56402344 -31.5090332 152.26660156 C-27.50595711 156.28883113 -23.39546341 160.10743728 -19.09667969 163.81152344 C-17.15643523 165.50510582 -15.33578944 167.28243682 -13.55004883 169.13769531 C-10.44104604 172.36485497 -8.46992809 174.25371241 -3.79223633 174.55566406 C-2.27394268 174.55260607 -0.75564496 174.53737472 0.76245117 174.51269531 C1.57834717 174.5077002 2.39424316 174.50270508 3.23486328 174.49755859 C8.2902589 174.44396284 13.3336015 174.26181376 18.38354492 174.02441406 C19.51453613 173.97196533 20.64552734 173.9195166 21.81079102 173.86547852 C24.05254553 173.75615221 26.29381669 173.6363638 28.53442383 173.50561523 C29.55971191 173.45381104 30.585 173.40200684 31.64135742 173.34863281 C33.01529663 173.27008057 33.01529663 173.27008057 34.41699219 173.18994141 C36.63745117 173.32519531 36.63745117 173.32519531 38.63745117 175.32519531 C38.83276367 177.70800781 38.83276367 177.70800781 38.76245117 180.45019531 C38.7444043 181.36027344 38.72635742 182.27035156 38.70776367 183.20800781 C38.68456055 183.90667969 38.66135742 184.60535156 38.63745117 185.32519531 C32.75204917 185.75844817 26.86623553 186.1854286 20.97998047 186.60693359 C18.98311484 186.75077356 16.98636577 186.89624235 14.98974609 187.04345703 C-3.48954321 188.40406586 -3.48954321 188.40406586 -11.98364258 188.63769531 C-12.93811279 188.66476562 -13.89258301 188.69183594 -14.87597656 188.71972656 C-19.83497988 187.93290777 -22.44663531 184.11456941 -25.36254883 180.32519531 C-26.39699621 179.13140123 -27.43874557 177.943897 -28.48754883 176.76269531 C-29.31899414 175.79396484 -29.31899414 175.79396484 -30.16723633 174.80566406 C-33.84314392 170.65228092 -37.66572858 166.6339692 -41.47631836 162.60424805 C-47.61038999 156.08500594 -47.61038999 156.08500594 -49.36254883 153.32519531 C-49.09750004 150.32130899 -48.52950608 149.49215256 -46.36254883 147.32519531 C-49.4845236 148.63415251 -49.4845236 148.63415251 -51.36254883 151.32519531 C-52.02254883 151.32519531 -52.68254883 151.32519531 -53.36254883 151.32519531 C-53.03254883 182.34519531 -52.70254883 213.36519531 -52.36254883 245.32519531 C-53.35254883 245.32519531 -54.34254883 245.32519531 -55.36254883 245.32519531 C-55.3630936 244.26796768 -55.36363836 243.21074005 -55.36419964 242.12147522 C-55.37862251 216.34579261 -55.42175273 190.57027833 -55.4946394 164.79469299 C-55.52922925 152.32958029 -55.55463704 139.86457749 -55.55810547 127.39941406 C-55.56115371 116.52934078 -55.5817597 105.65946353 -55.6230734 94.7894659 C-55.64432694 89.03877379 -55.65704337 83.28835983 -55.64870262 77.53762817 C-55.64111404 72.11367027 -55.6571795 66.69027373 -55.69060898 61.26641846 C-55.69878461 59.28648533 -55.69866113 57.30649575 -55.68914604 55.3265686 C-55.60384512 35.60879484 -59.30046983 19.45496177 -73.48754883 4.82519531 C-75.96987381 2.38252408 -78.16545587 0.44158447 -81.16723633 -1.33105469 C-81.89168945 -1.77449219 -82.61614258 -2.21792969 -83.36254883 -2.67480469 C-83.36254883 -3.33480469 -83.36254883 -3.99480469 -83.36254883 -4.67480469 C-54.55792832 -17.09058939 -26.66436326 -19.50211568 0 0 Z " fill="#FBFBFB" transform="translate(532.362548828125,242.6748046875)"/>
<path d="M0 0 C2.26163151 0.53162126 4.52335666 1.06284427 6.78515625 1.59375 C8.02023926 1.88507813 9.25532227 2.17640625 10.52783203 2.4765625 C15.93757666 3.74885829 21.35401596 4.99204535 26.77033997 6.23597717 C31.02385676 7.21305751 35.27638924 8.19397834 39.52661133 9.18530273 C46.53144127 10.81734955 53.52989995 12.44241287 60.578125 13.87890625 C61.55160889 14.08507568 62.52509277 14.29124512 63.52807617 14.50366211 C65.21898441 14.85898102 66.91434075 15.19418094 68.61450195 15.50219727 C74.45180794 16.75975193 77.30472725 19.53825956 80.625 24.4375 C82.70207819 28.59165639 81.97388073 33.90205048 81.625 38.4375 C79.70833333 43.35416667 79.70833333 43.35416667 77.625 45.4375 C74.51621815 45.68322641 71.4244115 45.86617323 68.31030273 46.01000977 C66.84170807 46.08338058 66.84170807 46.08338058 65.34344482 46.15823364 C62.08204144 46.31986993 58.82034908 46.4745471 55.55859375 46.62890625 C53.28905283 46.73927526 51.01952684 46.84995152 48.75001526 46.96092224 C43.97419072 47.19337435 39.19821989 47.42246572 34.42211914 47.64916992 C28.33974633 47.93808616 22.25777179 48.23455912 16.17588711 48.53355503 C11.47701198 48.76380034 6.77795859 48.99022668 2.07884407 49.21552849 C-0.16039199 49.32327942 -2.39957651 49.4321077 -4.6387043 49.54208565 C-11.54950748 49.88011744 -18.46037268 50.18880059 -25.375 50.4375 C-26.20382061 50.4681851 -27.03264122 50.4988702 -27.88657761 50.53048515 C-30.12231393 50.60443306 -32.35691701 50.65454881 -34.59350586 50.69335938 C-36.41597084 50.73184998 -36.41597084 50.73184998 -38.2752533 50.77111816 C-42.61580097 50.30395562 -44.8251897 48.6224699 -47.71069336 45.45727539 C-48.53452515 44.42654907 -48.53452515 44.42654907 -49.375 43.375 C-50.60385543 41.99595652 -51.83430745 40.61833398 -53.06640625 39.2421875 C-53.63246582 38.58186523 -54.19852539 37.92154297 -54.78173828 37.24121094 C-57.68325199 33.95644488 -61.02182822 31.24321517 -64.375 28.4375 C-64.03732013 25.59147023 -63.81404148 23.89733783 -61.80297852 21.79101562 C-61.12678467 21.31341797 -60.45059082 20.83582031 -59.75390625 20.34375 C-58.99134521 19.79420654 -58.22878418 19.24466309 -57.44311523 18.6784668 C-56.61626221 18.10394775 -55.78940918 17.52942871 -54.9375 16.9375 C-54.09453369 16.33526611 -53.25156738 15.73303223 -52.38305664 15.11254883 C-50.61506776 13.85031033 -48.84308204 12.59365359 -47.06738281 11.34228516 C-44.4227254 9.47126438 -41.7982385 7.57531452 -39.1796875 5.66796875 C-32.80021983 1.02332923 -32.80021983 1.02332923 -29.83984375 -1.11328125 C-28.90579712 -1.78870972 -28.90579712 -1.78870972 -27.95288086 -2.4777832 C-20.93143253 -7.30468943 -7.83739696 -1.87574304 0 0 Z " fill="#FAA804" transform="translate(571.375,351.5625)"/>
<path d="M0 0 C-2.77791848 2.80442533 -5.58622337 5.56385754 -8.453125 8.27734375 C-27.52209266 26.52178843 -39.94406071 50.24239188 -41.09058011 77.12374592 C-41.12491115 79.41988892 -41.12859931 81.71399149 -41.12025452 84.01037598 C-41.12153615 85.31919873 -41.12153615 85.31919873 -41.12284368 86.65446234 C-41.12448234 89.55937642 -41.11900368 92.46423192 -41.11352539 95.36914062 C-41.11324314 97.45896402 -41.11340199 99.54878751 -41.1139679 101.63861084 C-41.11425441 107.29912232 -41.10838125 112.95961255 -41.10139394 118.62011909 C-41.09513611 124.54048682 -41.09455468 130.46085506 -41.09336853 136.38122559 C-41.09026238 147.58657591 -41.08205864 158.79191646 -41.07201904 169.99726248 C-41.06083567 182.75657515 -41.05534185 195.5158883 -41.05032361 208.27520466 C-41.03987543 234.51680852 -41.02228985 260.75840371 -41 287 C-51.31743265 276.83288756 -56.63212256 263.69993418 -57.13142776 249.17734528 C-57.13947118 247.71155158 -57.14213274 246.24572201 -57.14044189 244.77990723 C-57.14341302 243.96794813 -57.14638414 243.15598903 -57.1494453 242.31942511 C-57.15809589 239.60681973 -57.15963747 236.89425868 -57.16113281 234.18164062 C-57.16576368 232.23305162 -57.17078871 230.28446352 -57.17617798 228.33587646 C-57.18928088 223.04620458 -57.1957432 217.75654539 -57.20018864 212.46685982 C-57.20312369 209.15772965 -57.20722938 205.84860292 -57.21169281 202.53947449 C-57.22536421 192.17363327 -57.23503176 181.80779993 -57.2388947 171.44195032 C-57.24337013 159.49979356 -57.26089564 147.55775156 -57.2898953 135.61562967 C-57.31156185 126.37035341 -57.32160169 117.12510931 -57.32293582 107.87980795 C-57.32398059 102.36516497 -57.32981788 96.85062991 -57.34775543 91.33601379 C-57.36432152 86.1419642 -57.36635042 80.94810266 -57.35761642 75.75403595 C-57.35685051 73.85708866 -57.36112926 71.96013091 -57.37107468 70.06320953 C-57.4691934 50.16732281 -54.92914568 32.23985617 -40.45703125 17.25 C-29.10667632 6.85603427 -15.79500323 -0.89405679 0 0 Z " fill="#0A9C68" transform="translate(414,231)"/>
<path d="M0 0 C1.14436523 0.21180908 2.28873047 0.42361816 3.46777344 0.6418457 C5.1504834 0.99315552 5.1504834 0.99315552 6.8671875 1.3515625 C7.81110352 1.5477417 8.75501953 1.7439209 9.72753906 1.94604492 C12.5742844 2.56950357 15.40802509 3.2357556 18.2421875 3.9140625 C20.50381901 4.44568376 22.76554416 4.97690677 25.02734375 5.5078125 C26.26242676 5.79914063 27.49750977 6.09046875 28.77001953 6.390625 C34.17976416 7.66292079 39.59620346 8.90610785 45.01252747 10.15003967 C49.26604426 11.12712001 53.51857674 12.10804084 57.76879883 13.09936523 C64.77362877 14.73141205 71.77208745 16.35647537 78.8203125 17.79296875 C79.79379639 17.99913818 80.76728027 18.20530762 81.77026367 18.41772461 C83.46117191 18.77304352 85.15652825 19.10824344 86.85668945 19.41625977 C92.69399544 20.67381443 95.54691475 23.45232206 98.8671875 28.3515625 C101.09904019 32.81526789 100.67861593 39.78518421 99.1953125 44.4765625 C98.3671875 46.1015625 98.3671875 46.1015625 96.8671875 48.3515625 C94.8871875 48.3515625 92.9071875 48.3515625 90.8671875 48.3515625 C90.28125 46.43098958 89.6953125 44.51041667 89.109375 42.58984375 C86.96333162 38.72291653 83.99366242 36.16168577 79.89404297 34.59985352 C77.56407223 33.96726672 75.23329064 33.45676373 72.8671875 32.9765625 C70.98687101 32.5616878 69.10666946 32.14629194 67.2265625 31.73046875 C65.69999023 31.40199951 65.69999023 31.40199951 64.14257812 31.06689453 C58.11835472 29.75122857 52.12021093 28.32270452 46.1171875 26.9140625 C44.84480225 26.61806152 43.57241699 26.32206055 42.26147461 26.01708984 C33.97331809 24.08887847 25.69911781 22.10834339 17.4296875 20.1015625 C9.68693587 18.22519382 1.95049055 16.50517288 -5.875 15.0078125 C-11.00737426 13.97395294 -16.07004603 12.68089224 -21.1328125 11.3515625 C-19.52203973 9.57971245 -17.89427257 7.96955523 -16.1328125 6.3515625 C-15.43929687 5.70445312 -14.74578125 5.05734375 -14.03125 4.390625 C-9.24078996 0.44278659 -6.22329848 -1.18488518 0 0 Z " fill="#FBFAF7" transform="translate(553.1328125,347.6484375)"/>
<path d="M0 0 C4.00395043 3.32242695 7.78309745 6.73234186 11.4375 10.4375 C14.85597107 13.90240192 18.3865943 17.13642506 22.08203125 20.30078125 C24.66485476 22.58902611 27.06382497 25.03537176 29.45703125 27.51953125 C33.4910803 31.39017578 36.85356977 31.27319667 42.125 31.1875 C42.940896 31.18250488 43.75679199 31.17750977 44.59741211 31.17236328 C49.65280773 31.11876753 54.69615033 30.93661845 59.74609375 30.69921875 C60.87708496 30.64677002 62.00807617 30.59432129 63.17333984 30.5402832 C65.41509436 30.4309569 67.65636552 30.31116849 69.89697266 30.18041992 C70.92226074 30.12861572 71.94754883 30.07681152 73.00390625 30.0234375 C74.37784546 29.94488525 74.37784546 29.94488525 75.77954102 29.86474609 C78 30 78 30 80 32 C80.1953125 34.3828125 80.1953125 34.3828125 80.125 37.125 C80.10695313 38.03507812 80.08890625 38.94515625 80.0703125 39.8828125 C80.04710937 40.58148438 80.02390625 41.28015625 80 42 C74.114598 42.43325285 68.22878435 42.86023329 62.3425293 43.28173828 C60.34566367 43.42557825 58.3489146 43.57104704 56.35229492 43.71826172 C37.87300562 45.07887055 37.87300562 45.07887055 29.37890625 45.3125 C28.42443604 45.33957031 27.46996582 45.36664063 26.48657227 45.39453125 C21.52756895 44.60771246 18.91591352 40.7893741 16 37 C14.96555261 35.80620592 13.92380326 34.61870169 12.875 33.4375 C12.32070313 32.79167969 11.76640625 32.14585937 11.1953125 31.48046875 C7.5194049 27.32708561 3.69682024 23.30877388 -0.11376953 19.27905273 C-8 10.89763027 -8 10.89763027 -8 8 C-6.5757623 5.15152461 -4.60102158 3.77630742 -2 2 C-1.34 2 -0.68 2 0 2 C0 1.34 0 0.68 0 0 Z " fill="#F8A80B" transform="translate(491,386)"/>
<path d="M0 0 C3.6578218 2.03993908 5.66946174 3.50419262 8 7 C8.38849339 11.372191 8.32911821 15.75400619 8.31567383 20.14135742 C8.31252612 22.29462882 8.33593372 24.44650904 8.36132812 26.59960938 C8.36360262 27.97916495 8.36430392 29.35872418 8.36328125 30.73828125 C8.36626221 31.98649658 8.36924316 33.23471191 8.37231445 34.52075195 C7.96228997 38.35239712 7.03083078 40.74155748 5 44 C0.99298306 46.67134463 -2.28876296 46.82653281 -7 46 C-10.28175318 43.47031526 -11.69243777 41.92268669 -13 38 C-13.24996969 33.76430673 -13.27075794 29.52841136 -13.29516602 25.28588867 C-13.30667849 23.89223064 -13.32711929 22.49861646 -13.35668945 21.10522461 C-13.39955813 19.08417011 -13.41555979 17.06442256 -13.42578125 15.04296875 C-13.44036377 13.83664795 -13.45494629 12.63032715 -13.4699707 11.38745117 C-12.90373022 7.30610746 -11.56592869 5.18805986 -9 2 C-5.46569344 -0.35620437 -4.16428713 -0.48991613 0 0 Z " fill="#070707" transform="translate(509,281)"/>
<path d="M0 0 C-0.49076855 8.34306541 -0.49076855 8.34306541 -2.62451172 11.09570312 C-5.71520324 13.57333867 -7.6831916 13.61855549 -11.6171875 13.828125 C-12.26309845 13.86694794 -12.9090094 13.90577087 -13.57449341 13.94577026 C-15.67412785 14.06625575 -17.77390271 14.15889438 -19.875 14.25 C-21.31775967 14.32568776 -22.76046838 14.40235327 -24.203125 14.47998047 C-35.80137927 15.07292328 -47.38856644 15.22140445 -59 15 C-59.05395478 13.37536158 -59.09277195 11.75021459 -59.125 10.125 C-59.14820313 9.22007812 -59.17140625 8.31515625 -59.1953125 7.3828125 C-59 5 -59 5 -57 3 C-54.11263485 2.61177332 -51.30029082 2.34031492 -48.3984375 2.1484375 C-47.52917633 2.08467926 -46.65991516 2.02092102 -45.76431274 1.95523071 C-43.91350077 1.82154041 -42.06235608 1.69239203 -40.2109375 1.56738281 C-37.43397035 1.3790004 -34.65849059 1.17516439 -31.8828125 0.96875 C-21.23362514 0.20271936 -10.6773424 -0.18778769 0 0 Z " fill="#F8A70A" transform="translate(645,411)"/>
<path d="M0 0 C2.83556505 2.14724092 3.87705077 3.33871881 4.53344727 6.86914062 C4.56899163 10.41409819 4.59392172 13.95489111 4.5625 17.5 C4.58634766 18.73621094 4.61019531 19.97242188 4.63476562 21.24609375 C4.63283203 22.43332031 4.63089844 23.62054688 4.62890625 24.84375 C4.62963135 25.92849609 4.63035645 27.01324219 4.63110352 28.13085938 C4 31 4 31 1.65209961 33.35351562 C-1.59091896 35.36685607 -3.24776424 35.63867843 -7 35 C-9.30275556 33.1329009 -10.67823871 31.64352259 -12 29 C-12.32248898 25.06930842 -12.32442843 21.12978381 -12.375 17.1875 C-12.43107422 15.5468457 -12.43107422 15.5468457 -12.48828125 13.87304688 C-12.57673731 5.80880308 -12.57673731 5.80880308 -9.69921875 1.7734375 C-6.15943341 -0.55226806 -4.15691463 -0.68022239 0 0 Z " fill="#080808" transform="translate(554,287)"/>
<path d="M0 0 C0.66 0 1.32 0 2 0 C2.33 68.64 2.66 137.28 3 208 C2.01 208 1.02 208 0 208 C0 139.36 0 70.72 0 0 Z " fill="#DDFEFB" transform="translate(477,280)"/>
<path d="M0 0 C0.33 0 0.66 0 1 0 C1 37.95 1 75.9 1 115 C-0.32 113.68 -1.64 112.36 -3 111 C-2.34 111 -1.68 111 -1 111 C-1.00222061 110.27307449 -1.00444122 109.54614899 -1.00672913 108.79719543 C-1.03386752 99.46897233 -1.05186299 90.14075511 -1.0625 80.8125 C-1.06335602 80.06712227 -1.06421204 79.32174454 -1.06509399 78.5537796 C-1.09166147 52.35745302 -0.77957051 26.18610521 0 0 Z " fill="#1E8461" transform="translate(372,403)"/>
<path d="M0 0 C2.0625 0.4375 2.0625 0.4375 4 1 C3.01 1 2.02 1 1 1 C1.04125 1.886875 1.0825 2.77375 1.125 3.6875 C1.00102754 6.97277013 0.38612096 9.05449295 -1 12 C-1.66 12 -2.32 12 -3 12 C-3 12.66 -3 13.32 -3 14 C-5.22836264 15.11418132 -6.58927907 15.17874437 -9.0625 15.28125 C-9.85914063 15.31863281 -10.65578125 15.35601562 -11.4765625 15.39453125 C-13.15885417 15.46484375 -14.84114583 15.53515625 -16.5234375 15.60546875 C-17.32007813 15.64285156 -18.11671875 15.68023437 -18.9375 15.71875 C-19.66839844 15.74904297 -20.39929688 15.77933594 -21.15234375 15.81054688 C-23.0938577 15.89957573 -23.0938577 15.89957573 -25 17 C-27.62627133 17.08667255 -30.22562483 17.11560135 -32.8515625 17.09765625 C-33.62559418 17.0962413 -34.39962585 17.09482635 -35.19711304 17.09336853 C-37.67311442 17.08776403 -40.14902588 17.07521083 -42.625 17.0625 C-44.30208203 17.05748558 -45.97916547 17.05292257 -47.65625 17.04882812 C-51.77086806 17.03779315 -55.88541878 17.02052554 -60 17 C-60 16.67 -60 16.34 -60 16 C-32.28 14.515 -32.28 14.515 -4 13 C-2.515 7.06 -2.515 7.06 -1 1 C-0.67 0.67 -0.34 0.34 0 0 Z " fill="#FBEFBE" transform="translate(646,410)"/>
<path d="M0 0 C5.15171623 -0.09038099 9.91913204 0.15318867 15 1 C15 1.66 15 2.32 15 3 C20.10384626 3.65764745 20.10384626 3.65764745 25.21875 4.21875 C39.640625 5.640625 39.640625 5.640625 42 8 C43.03125 8.144375 44.0625 8.28875 45.125 8.4375 C48.94345392 8.9917917 52.32219105 9.87414012 56 11 C56 11.66 56 12.32 56 13 C48.45836307 12.30152549 41.27449867 10.45607317 33.9375 8.625 C24.87780973 6.38654351 15.84266514 4.23371832 6.65234375 2.60546875 C4.15176081 2.03464348 2.22072236 1.26213717 0 0 Z " fill="#FEF1C0" transform="translate(540,360)"/>
<path d="M0 0 C0 0.33 0 0.66 0 1 C-8.51154238 3.25029451 -16.89286166 3.23506025 -25.625 3.125 C-27.02473314 3.11494398 -28.42447331 3.10582279 -29.82421875 3.09765625 C-33.21632925 3.07426238 -36.6080706 3.04148173 -40 3 C-40 2.67 -40 2.34 -40 2 C-35.58386849 1.65932182 -31.16702805 1.32883307 -26.75 1 C-25.51507812 0.90460938 -24.28015625 0.80921875 -23.0078125 0.7109375 C-15.32109524 0.14454781 -7.70705674 -0.1286296 0 0 Z " fill="#FEEEB7" transform="translate(568,428)"/>
<path d="M0 0 C0.99 0.33 1.98 0.66 3 1 C2.484375 1.391875 1.96875 1.78375 1.4375 2.1875 C-0.23949588 3.91641566 -0.23949588 3.91641566 0 6.3125 C1.3547755 9.95345915 3.39367002 12.12635413 6 15 C2.38739215 14.69894935 1.25490423 14.29131912 -1.1875 11.5 C-1.785625 10.675 -2.38375 9.85 -3 9 C-3.66 8.67 -4.32 8.34 -5 8 C-5 7.01 -5 6.02 -5 5 C-4.34 5 -3.68 5 -3 5 C-2.5359375 4.0409375 -2.5359375 4.0409375 -2.0625 3.0625 C-1 1 -1 1 0 0 Z " fill="#FDF8D5" transform="translate(484,389)"/>
<path d="M0 0 C0 1.65 0 3.3 0 5 C-0.66 4.34 -1.32 3.68 -2 3 C-4.81402683 2.62760773 -4.81402683 2.62760773 -8.1015625 2.5859375 C-9.31328125 2.54726563 -10.525 2.50859375 -11.7734375 2.46875 C-13.04445313 2.4378125 -14.31546875 2.406875 -15.625 2.375 C-16.90375 2.33632813 -18.1825 2.29765625 -19.5 2.2578125 C-22.66652017 2.16328951 -25.8330304 2.07773643 -29 2 C-29 1.67 -29 1.34 -29 1 C-19.30429046 0.07027443 -9.72657452 -0.11237377 0 0 Z " fill="#DFA328" transform="translate(645,411)"/>
<path d="M0 0 C0.33 0.99 0.66 1.98 1 3 C-0.81477069 4.81477069 -2.63876942 6.60683095 -4.5 8.375 C-7.06616001 10.87778262 -7.06616001 10.87778262 -8.6875 13.8125 C-9.120625 14.534375 -9.55375 15.25625 -10 16 C-10.66 16 -11.32 16 -12 16 C-12.33 17.32 -12.66 18.64 -13 20 C-13.66 19.67 -14.32 19.34 -15 19 C-10.72988548 11.74080531 -6.25003586 5.66561692 0 0 Z " fill="#188C65" transform="translate(424,257)"/>
<path d="M0 0 C0.33 0 0.66 0 1 0 C1.26554687 1.15757812 1.53109375 2.31515625 1.8046875 3.5078125 C2.16130764 5.04690993 2.51808691 6.58597048 2.875 8.125 C3.04902344 8.88554687 3.22304688 9.64609375 3.40234375 10.4296875 C4.39798428 14.70725424 5.52971389 18.85405809 7 23 C6.01 23 5.02 23 4 23 C2.57741188 19.17679443 1.75957724 16.08718695 2 12 C1.34 12 0.68 12 0 12 C0 8.04 0 4.08 0 0 Z " fill="#D2F8EE" transform="translate(357,484)"/>
<path d="M0 0 C5.15171623 -0.09038099 9.91913204 0.15318867 15 1 C15 1.66 15 2.32 15 3 C16.299375 3.12375 17.59875 3.2475 18.9375 3.375 C21.15234375 3.5859375 21.15234375 3.5859375 23 4 C23.33 4.66 23.66 5.32 24 6 C20.74811414 5.38456044 17.49890221 4.75598514 14.25 4.125 C12.86941406 3.86396484 12.86941406 3.86396484 11.4609375 3.59765625 C10.12675781 3.33662109 10.12675781 3.33662109 8.765625 3.0703125 C7.94868164 2.91320801 7.13173828 2.75610352 6.29003906 2.59423828 C3.98062058 1.99497127 2.08675074 1.14394167 0 0 Z " fill="#FDEEB6" transform="translate(540,360)"/>
<path d="M0 0 C0 0.66 0 1.32 0 2 C-0.804375 2.474375 -1.60875 2.94875 -2.4375 3.4375 C-5.2918076 4.79983672 -5.2918076 4.79983672 -6 8 C-5.34 8 -4.68 8 -4 8 C-3.731875 8.61875 -3.46375 9.2375 -3.1875 9.875 C-2.04443152 12.2995233 -2.04443152 12.2995233 1 14 C0.67 14.66 0.34 15.32 0 16 C-2.64 13.69 -5.28 11.38 -8 9 C-7 4 -7 4 -4.5625 1.6875 C-2 0 -2 0 0 0 Z " fill="#E1AB2B" transform="translate(515,371)"/>
<path d="M0 0 C0.33 0.66 0.66 1.32 1 2 C0.18196654 4.45410038 -0.8923744 6.76190581 -1.95703125 9.1171875 C-3.86562648 13.36327576 -5.62794974 17.54083666 -7 22 C-7.66 22 -8.32 22 -9 22 C-7.20585311 13.86338646 -4.26941128 7.1433192 0 0 Z " fill="#1B9167" transform="translate(408,278)"/>
<path d="M0 0 C0.66 0.33 1.32 0.66 2 1 C1.67 2.32 1.34 3.64 1 5 C0.071875 5.12375 0.071875 5.12375 -0.875 5.25 C-3.1346633 5.77905978 -3.1346633 5.77905978 -3.9375 7.75 C-4.288125 8.4925 -4.63875 9.235 -5 10 C-6.62746694 11.70496537 -8.28891311 13.37897032 -10 15 C-10.66 14.67 -11.32 14.34 -12 14 C-11.55269531 13.57589844 -11.10539062 13.15179687 -10.64453125 12.71484375 C-6.55048098 8.74300394 -3.186099 4.73087427 0 0 Z " fill="#E1FCF5" transform="translate(468,510)"/>
<path d="M0 0 C1.485 0.99 1.485 0.99 3 2 C6.19806665 2.4603764 6.19806665 2.4603764 9.6875 2.625 C11.45673828 2.73714844 11.45673828 2.73714844 13.26171875 2.8515625 C14.61716797 2.92503906 14.61716797 2.92503906 16 3 C16 3.66 16 4.32 16 5 C13.70839681 5.02692484 11.41670454 5.04636124 9.125 5.0625 C7.84882812 5.07410156 6.57265625 5.08570313 5.2578125 5.09765625 C2 5 2 5 0 4 C0 2.68 0 1.36 0 0 Z " fill="#FEF8D1" transform="translate(512,428)"/>
<path d="M0 0 C-2.57784846 2.64752004 -4.91648098 4.94432065 -8 7 C-7.67 6.01 -7.34 5.02 -7 4 C-8.98 3.34 -10.96 2.68 -13 2 C-13 1.67 -13 1.34 -13 1 C-8.59085217 -0.10228696 -4.51617599 -0.07654536 0 0 Z " fill="#279570" transform="translate(414,231)"/>
<path d="M0 0 C0.33 0.66 0.66 1.32 1 2 C0.25234375 2.47050781 -0.4953125 2.94101563 -1.265625 3.42578125 C-2.25046875 4.04839844 -3.2353125 4.67101562 -4.25 5.3125 C-5.22453125 5.92738281 -6.1990625 6.54226562 -7.203125 7.17578125 C-9.54733713 8.70475759 -11.78784032 10.28820977 -14 12 C-14.66 11.67 -15.32 11.34 -16 11 C-14.0862931 9.53763907 -12.16924767 8.08005754 -10.25 6.625 C-9.71117187 6.2125 -9.17234375 5.8 -8.6171875 5.375 C-5.85055187 3.28315355 -3.1790912 1.40435582 0 0 Z " fill="#189168" transform="translate(448,239)"/>
<path d="M0 0 C1.75 0.125 1.75 0.125 4 1 C5.36176581 2.98075027 6.69593116 4.98079663 8 7 C8.99 7.33 9.98 7.66 11 8 C10.67 9.32 10.34 10.64 10 12 C8.33032474 10.19019128 6.66417692 8.3773524 5 6.5625 C4.28457031 5.7880957 4.28457031 5.7880957 3.5546875 4.99804688 C0 1.11328125 0 1.11328125 0 0 Z " fill="#EDAB22" transform="translate(492,405)"/>
<path d="M0 0 C11.68658189 0.8623109 11.68658189 0.8623109 15 3 C15.8125 5.625 15.8125 5.625 16 8 C15.030625 7.21625 14.06125 6.4325 13.0625 5.625 C8.97209342 2.66616081 4.92991189 1.74898888 0 1 C0 0.67 0 0.34 0 0 Z " fill="#FCE8AC" transform="translate(626,380)"/>
<path d="M0 0 C0 0.99 0 1.98 0 3 C-1.42578125 4.28125 -1.42578125 4.28125 -3.3125 5.5 C-5.8292217 7.14615759 -7.93145928 8.8105292 -10 11 C-10.66 10.34 -11.32 9.68 -12 9 C-8.04 6.03 -4.08 3.06 0 0 Z " fill="#E2A72B" transform="translate(527,361)"/>
<path d="M0 0 C-2.33623775 1.82518575 -4.08898065 3.01010373 -7.11328125 2.9765625 C-9.08537617 2.71735287 -11.04463697 2.36455921 -13 2 C-8.7920942 -0.80527053 -4.85771358 -1.68151624 0 0 Z " fill="#DDFBF4" transform="translate(434,537)"/>
<path d="M0 0 C1.98 1.65 3.96 3.3 6 5 C5.01 6.485 5.01 6.485 4 8 C3.34 8 2.68 8 2 8 C2 6.35 2 4.7 2 3 C1.34 3 0.68 3 0 3 C0 2.01 0 1.02 0 0 Z " fill="#E9A517" transform="translate(510,404)"/>
<path d="M0 0 C0.33 0.66 0.66 1.32 1 2 C3.52733235 2.65555119 3.52733235 2.65555119 6 3 C5.67 4.32 5.34 5.64 5 7 C3.02 5.35 1.04 3.7 -1 2 C-0.67 1.34 -0.34 0.68 0 0 Z " fill="#221301" transform="translate(501,393)"/>
<path d="M0 0 C0 3.69418201 -1.28179295 5.77836178 -3 9 C-3.66 8.67 -4.32 8.34 -5 8 C-5 5 -5 5 -2.5 2.3125 C-1.675 1.549375 -0.85 0.78625 0 0 Z " fill="#219970" transform="translate(375,247)"/>
<path d="M0 0 C0.66 0 1.32 0 2 0 C2.268125 0.61875 2.53625 1.2375 2.8125 1.875 C3.95556848 4.2995233 3.95556848 4.2995233 7 6 C6.67 6.66 6.34 7.32 6 8 C3.69 6.02 1.38 4.04 -1 2 C-0.67 1.34 -0.34 0.68 0 0 Z " fill="#DD9F23" transform="translate(509,379)"/>
<path d="M0 0 C0.33 0.99 0.66 1.98 1 3 C-1.12780579 5.34058637 -3.11562221 6.70700306 -6 8 C-4.55746343 4.63408134 -2.66735273 2.48952921 0 0 Z " fill="#1B946C" transform="translate(424,257)"/>
<path d="M0 0 C0.33 0 0.66 0 1 0 C1 2.97 1 5.94 1 9 C0.01 9.33 -0.98 9.66 -2 10 C-1.34 6.7 -0.68 3.4 0 0 Z " fill="#D3F6EC" transform="translate(476,488)"/>
<path d="M0 0 C1.98 0 3.96 0 6 0 C5.67 0.99 5.34 1.98 5 3 C3.35 3 1.7 3 0 3 C0 2.01 0 1.02 0 0 Z " fill="#EFA818" transform="translate(637,420)"/>
<path d="M0 0 C4.875 4.75 4.875 4.75 6 7 C4.35 6.67 2.7 6.34 1 6 C0.67 4.02 0.34 2.04 0 0 Z " fill="#FEEFC1" transform="translate(492,406)"/>
<path d="M0 0 C6.52307692 -0.36923077 6.52307692 -0.36923077 8.9375 1.5 C9.288125 1.995 9.63875 2.49 10 3 C2.25 2.25 2.25 2.25 0 0 Z " fill="#FFF8D1" transform="translate(574,367)"/>
<path d="M0 0 C4.455 0.99 4.455 0.99 9 2 C9 2.33 9 2.66 9 3 C5.37 3 1.74 3 -2 3 C-1.34 2.01 -0.68 1.02 0 0 Z " fill="#E6A824" transform="translate(531,358)"/>
<path d="M0 0 C0.33 0.99 0.66 1.98 1 3 C0.34 3 -0.32 3 -1 3 C-1.33 3.99 -1.66 4.98 -2 6 C-2.99 5.34 -3.98 4.68 -5 4 C-5 3.34 -5 2.68 -5 2 C-3.35 1.34 -1.7 0.68 0 0 Z " fill="#E0EEEA" transform="translate(454,236)"/>
</svg>
